<svg xmlns="http://www.w3.org/2000/svg" viewBox="0 0 167.51 57.87"><defs><style>.cls-1{fill:#414042;}</style></defs><title>Asset 2</title><g id="Layer_2" data-name="Layer 2"><g id="Layer_1-2" data-name="Layer 1"><path class="cls-1" d="M40.4,55.28v-4.4L34.29,27.83l-2.38,5.55-2.38,1-9.86-4a19.23,19.23,0,0,1-9.83-8.45L0,2.43,2.19,0,37.13,13.29l3.26-7.44h3.24l3.26,7.44L81.83,0,84,2.43l-9.8,19.41a19.3,19.3,0,0,1-9.9,8.53l-9.83,4-2.38-1-2.38-5.55-6.1,23v4.45ZM42,44.46,44.52,35h-5ZM38.65,31.8h6.72l1.32-5H37.33Zm-24.31-9a16,16,0,0,0,6.5,4.58L29.5,30.9l3.87-9H13.53Zm40.18,8.1,8.63-3.5a16.19,16.19,0,0,0,6.51-4.6l.81-.95H50.64ZM36.08,23.64H47.94L42,10.12ZM48.22,16.2l1.05,2.45h23L79.49,4.31ZM11.77,18.65h23l1-2.45L4.53,4.31Z"/><path class="cls-1" d="M84.94,38.17,85,57.6H81.36V44.2L75,52.64h-.36L68.3,44.22l0,13.4H64.71l0-19.43h3.14l7,9.35,7-9.37Z"/><path class="cls-1" d="M87.86,39.72a2.18,2.18,0,1,1,2.2,2.1A2.12,2.12,0,0,1,87.86,39.72Zm3.88,17.87H88.39l0-13.6h3.36Z"/><path class="cls-1" d="M116.49,49.09v8.46h-3.33V49.23a2.39,2.39,0,0,0-2.53-2.55,3.76,3.76,0,0,0-3.11,1.61c0,.2,0,.39,0,.56v8.71h-3.35l0-8.36a2.43,2.43,0,0,0-2.53-2.52,3.72,3.72,0,0,0-3.19,2.06l0,8.83H95.13l0-13.6h3.36v1.61a5.17,5.17,0,0,1,4-2,4.83,4.83,0,0,1,4,1.91A6.06,6.06,0,0,1,111,43.63,5.16,5.16,0,0,1,116.49,49.09Z"/><path class="cls-1" d="M126.46,55a6.7,6.7,0,0,0,4.19-1.45L131.9,56a8.67,8.67,0,0,1-5.55,1.84c-4.85,0-7.85-3-7.86-7.18a6.83,6.83,0,0,1,7.15-7.09c4.55,0,7.47,3.24,6.92,8.54l-10.57,0C122.52,54,124.1,55,126.46,55Zm2.82-5.37a3.33,3.33,0,0,0-3.61-3.15,3.6,3.6,0,0,0-3.77,3.16Z"/><path class="cls-1" d="M134.09,56l1.33-2.67a8.1,8.1,0,0,0,5.22,1.63c2.09,0,3.11-.53,3.11-1.44s-1.08-1-3.64-1.33c-3.27-.41-5.66-1.16-5.67-4s2.38-4.55,6.1-4.56c3.42,0,5.31,1.49,6.17,3.32L144,48.19c-.44-1.17-1.66-1.75-3.38-1.75s-2.75.64-2.75,1.48,1,1,3.28,1.32c3.44.47,6.08,1,6.08,4s-2.57,4.55-6.65,4.56A10.65,10.65,0,0,1,134.09,56Z"/><path class="cls-1" d="M148.53,39.63a2.18,2.18,0,1,1,2.2,2.11A2.12,2.12,0,0,1,148.53,39.63Zm3.89,17.87h-3.36l0-13.6h3.36Z"/><path class="cls-1" d="M154.41,55.94l1.33-2.67A8.08,8.08,0,0,0,161,54.9c2.08,0,3.11-.53,3.11-1.44s-1.09-1-3.64-1.33c-3.28-.41-5.66-1.16-5.67-4s2.38-4.55,6.1-4.56c3.41,0,5.3,1.49,6.17,3.32l-2.75,1.28c-.44-1.16-1.67-1.74-3.39-1.74s-2.74.64-2.74,1.48,1,1,3.27,1.32c3.45.47,6.08,1,6.09,4s-2.58,4.55-6.66,4.56A10.64,10.64,0,0,1,154.41,55.94Z"/></g></g></svg>